<svg width="24" height="24" viewBox="0 0 24 24" fill="none" xmlns="http://www.w3.org/2000/svg">
<path fill-rule="evenodd" clip-rule="evenodd" d="M20.9654 1.77778H16.889C16.3983 1.77778 16.0001 1.37956 16.0001 0.888889C16.0001 0.398222 16.3983 0 16.889 0H23.1112C23.6023 0 24.0001 0.397778 24.0001 0.888889V7.11111C24.0001 7.60178 23.6019 8 23.1112 8C22.6206 8 22.2223 7.60178 22.2223 7.11111V3.03467L12.6286 12.6284C12.2819 12.9756 11.7183 12.9756 11.3717 12.6284C11.0246 12.2818 11.0246 11.7182 11.3717 11.3716L20.9654 1.77778Z" fill="#22BBEE"/>
<path fill-rule="evenodd" clip-rule="evenodd" d="M18.6667 18.6667V11.5556C18.6667 11.084 18.8538 10.632 19.1876 10.2987C19.5209 9.96489 19.9729 9.77778 20.4444 9.77778H22.2222C22.6938 9.77778 23.1458 9.96489 23.4791 10.2987C23.8129 10.632 24 11.084 24 11.5556V19.5556C24 22.0102 22.0102 24 19.5556 24H4.44444C3.26578 24 2.13511 23.5316 1.30178 22.6982C0.468444 21.8649 0 20.7342 0 19.5556V4.44444C0 1.98978 1.98978 0 4.44444 0C7.11111 0 9.77778 0 12.4444 0C12.916 0 13.368 0.187111 13.7013 0.520889C14.0351 0.854222 14.2222 1.30622 14.2222 1.77778V3.55556C14.2222 4.02711 14.0351 4.47911 13.7013 4.81244C13.368 5.14622 12.916 5.33333 12.4444 5.33333H5.33333V18.6667H18.6667ZM12.4444 1.77778H4.44444C2.97156 1.77778 1.77778 2.97156 1.77778 4.44444V19.5556C1.77778 20.2627 2.05867 20.9409 2.55867 21.4413C3.05911 21.9413 3.73733 22.2222 4.44444 22.2222H19.5556C21.0284 22.2222 22.2222 21.0284 22.2222 19.5556V11.5556H20.4444V18.6667C20.4444 19.1382 20.2573 19.5902 19.9236 19.9236C19.5902 20.2573 19.1382 20.4444 18.6667 20.4444H5.33333C4.86178 20.4444 4.40978 20.2573 4.07644 19.9236C3.74267 19.5902 3.55556 19.1382 3.55556 18.6667V5.33333C3.55556 4.86178 3.74267 4.40978 4.07644 4.07644C4.40978 3.74267 4.86178 3.55556 5.33333 3.55556H12.4444V1.77778Z" fill="#22BBEE"/>
</svg>
