<svg width="24" height="24" viewBox="0 0 24 24" fill="none" xmlns="http://www.w3.org/2000/svg">
<path fill-rule="evenodd" clip-rule="evenodd" d="M12.9095 14.4817C12.48 15.2236 11.6777 15.7239 10.759 15.7239C9.38897 15.7239 8.27628 14.6112 8.27628 13.2411C8.27628 12.3225 8.77655 11.5202 9.51849 11.0907C9.91366 10.8619 10.049 10.355 9.82015 9.95981C9.59132 9.56424 9.08442 9.42934 8.68924 9.65816C7.45324 10.3736 6.62109 11.711 6.62109 13.2411C6.62109 15.5248 8.47531 17.379 10.759 17.379C12.2893 17.379 13.6266 16.5469 14.3421 15.3109C14.5709 14.9157 14.436 14.4088 14.0404 14.18C13.6453 13.9512 13.1384 14.0865 12.9095 14.4817Z" fill="#22BBEE"/>
<path fill-rule="evenodd" clip-rule="evenodd" d="M19.7533 11.8318C19.8249 12.2911 19.8622 12.762 19.8622 13.2415C19.8622 18.2657 15.783 22.3448 10.7587 22.3448C5.73438 22.3448 1.65518 18.2657 1.65518 13.2415C1.65518 8.21735 5.73438 4.13824 10.7587 4.13824C11.2379 4.13824 11.7083 4.17507 12.1681 4.24665C12.6191 4.317 13.0428 4.00748 13.1128 3.55604C13.1831 3.10501 12.8736 2.6813 12.4226 2.61137C11.8797 2.52695 11.3243 2.48309 10.7587 2.48309C4.82072 2.48309 0 7.30371 0 13.2415C0 19.1794 4.82072 24 10.7587 24C16.6966 24 21.5174 19.1794 21.5174 13.2415C21.5174 12.6751 21.4735 12.1194 21.3891 11.5769C21.3187 11.1259 20.895 10.8163 20.444 10.8867C19.9925 10.957 19.6834 11.3807 19.7533 11.8318Z" fill="#22BBEE"/>
<path fill-rule="evenodd" clip-rule="evenodd" d="M16.4051 11.9398C16.5011 12.3581 16.552 12.7943 16.552 13.242C16.552 16.4393 13.9563 19.035 10.7589 19.035C7.56147 19.035 4.96573 16.4393 4.96573 13.242C4.96573 10.0447 7.56147 7.44897 10.7589 7.44897C11.2062 7.44897 11.6419 7.49987 12.0602 7.59586C12.5055 7.69807 12.9499 7.42 13.0521 6.97477C13.1547 6.52954 12.8763 6.08513 12.431 5.98292C11.8935 5.8592 11.3336 5.79382 10.7589 5.79382C6.64822 5.79382 3.31055 9.13101 3.31055 13.242C3.31055 17.3525 6.64822 20.6901 10.7589 20.6901C14.8695 20.6901 18.2072 17.3525 18.2072 13.242C18.2072 12.6664 18.1418 12.1066 18.0181 11.5686C17.9155 11.1234 17.471 10.8453 17.0258 10.9475C16.5806 11.0502 16.3025 11.4946 16.4051 11.9398Z" fill="#22BBEE"/>
<path fill-rule="evenodd" clip-rule="evenodd" d="M14.8971 7.93309V5.65106C14.8971 4.99272 15.1586 4.36087 15.6241 3.89536C16.717 2.80296 19.2775 0.242452 19.2775 0.242452C19.5142 0.00576573 19.8701 -0.0649918 20.1792 0.0628683C20.4887 0.191142 20.6902 0.492793 20.6902 0.827546V2.48269C20.6902 2.93993 21.0606 3.31027 21.5178 3.31027H23.173C23.5077 3.31027 23.8094 3.51178 23.9377 3.82129C24.0655 4.13039 23.9948 4.48625 23.7581 4.72293C23.7581 4.72293 21.1975 7.28344 20.1051 8.37625C19.6396 8.84176 19.0077 9.10328 18.3494 9.10328H16.0673L11.3442 13.8262C11.0215 14.1494 10.4968 14.1494 10.174 13.8262C9.85085 13.5035 9.85085 12.9788 10.174 12.656L14.8971 7.93309ZM19.0557 2.80462L16.7947 5.06596C16.6396 5.22113 16.5523 5.43133 16.5523 5.65106V7.44813H18.3494C18.5691 7.44813 18.7793 7.36082 18.9345 7.20565L21.1959 4.94472C20.0819 4.80031 19.2001 3.91853 19.0557 2.80462Z" fill="#22BBEE"/>
</svg>
