<svg width="24" height="24" viewBox="0 0 24 24" fill="none" xmlns="http://www.w3.org/2000/svg">
<path fill-rule="evenodd" clip-rule="evenodd" d="M7.87469 15.5146C7.79689 15.4062 7.72034 15.2953 7.64503 15.1819C6.01341 12.7235 4.96484 9.21119 4.96484 7.03419C4.96484 3.15192 8.11717 0 11.9994 0C15.8817 0 19.034 3.15192 19.034 7.03419C19.034 9.21119 17.9855 12.7235 16.3539 15.1819C16.2786 15.2953 16.202 15.4062 16.1242 15.5146C16.1329 15.5833 16.1374 15.6532 16.1374 15.724V18.2068C16.1374 18.8651 15.8759 19.4966 15.4104 19.9625C14.9445 20.4281 14.313 20.6896 13.6546 20.6896C12.6437 20.6896 11.3556 20.6896 10.3442 20.6896C9.68589 20.6896 9.05443 20.4281 8.5889 19.9625C8.12338 19.4966 7.86144 18.8651 7.86144 18.2068C7.86144 17.373 7.86144 16.3989 7.86144 15.724C7.86144 15.6532 7.866 15.5833 7.87469 15.5146ZM14.4822 15.724H9.51664V18.2068C9.51664 18.4261 9.60396 18.6367 9.75913 18.7919C9.91431 18.9471 10.1249 19.0344 10.3442 19.0344C11.3556 19.0344 12.6437 19.0344 13.6546 19.0344C13.874 19.0344 14.0846 18.9471 14.2398 18.7919C14.3949 18.6367 14.4822 18.4261 14.4822 18.2068V15.724ZM15.0409 14.1656C16.4536 11.987 17.3788 8.93891 17.3788 7.03419C17.3788 4.06559 14.9685 1.6552 11.9994 1.6552C9.03043 1.6552 6.62004 4.06559 6.62004 7.03419C6.62004 8.93891 7.5453 11.987 8.95801 14.1656C9.13222 14.1027 9.3205 14.0688 9.51664 14.0688H9.65858C9.56547 13.8056 9.51664 13.5259 9.51664 13.2412V9.93079C9.51664 9.47395 9.88741 9.10319 10.3442 9.10319C10.8011 9.10319 11.1718 9.47395 11.1718 9.93079C11.1718 9.93079 11.1718 11.797 11.1718 13.2412C11.1718 13.4605 11.2592 13.6711 11.4143 13.8263C11.5695 13.9815 11.7801 14.0688 11.9994 14.0688C12.2188 14.0688 12.4294 13.9815 12.5846 13.8263C12.7397 13.6711 12.827 13.4605 12.827 13.2412C12.827 11.797 12.827 9.93079 12.827 9.93079C12.827 9.47395 13.1978 9.10319 13.6546 9.10319C14.1115 9.10319 14.4822 9.47395 14.4822 9.93079C14.4822 9.93079 14.4822 11.797 14.4822 13.2412C14.4822 13.5259 14.4334 13.8056 14.3403 14.0688H14.4822C14.6784 14.0688 14.8663 14.1027 15.0409 14.1656Z" fill="#22BBEE"/>
<path fill-rule="evenodd" clip-rule="evenodd" d="M10.3452 24H13.6556C14.1124 24 14.4832 23.6292 14.4832 23.1724C14.4832 22.7156 14.1124 22.3448 13.6556 22.3448H10.3452C9.88841 22.3448 9.51758 22.7156 9.51758 23.1724C9.51758 23.6292 9.88841 24 10.3452 24Z" fill="#22BBEE"/>
<path fill-rule="evenodd" clip-rule="evenodd" d="M0.8276 9.93096H2.4828C2.93957 9.93096 3.3104 9.56019 3.3104 9.10336C3.3104 8.64652 2.93957 8.27576 2.4828 8.27576H0.8276C0.370835 8.27576 0 8.64652 0 9.10336C0 9.56019 0.370835 9.93096 0.8276 9.93096Z" fill="#22BBEE"/>
<path fill-rule="evenodd" clip-rule="evenodd" d="M21.5171 9.93096H23.1723C23.629 9.93096 23.9999 9.56019 23.9999 9.10336C23.9999 8.64652 23.629 8.27576 23.1723 8.27576H21.5171C21.0603 8.27576 20.6895 8.64652 20.6895 9.10336C20.6895 9.56019 21.0603 9.93096 21.5171 9.93096Z" fill="#22BBEE"/>
<path fill-rule="evenodd" clip-rule="evenodd" d="M4.37995 15.1389L3.1386 16.3803C2.81578 16.703 2.81578 17.2277 3.1386 17.5505C3.46142 17.8737 3.98582 17.8737 4.30911 17.5505L5.55046 16.3091C5.87328 15.9863 5.87328 15.4616 5.55046 15.1389C5.22717 14.8157 4.70277 14.8157 4.37995 15.1389Z" fill="#22BBEE"/>
<path fill-rule="evenodd" clip-rule="evenodd" d="M21.3467 0.655897L20.1054 1.8973C19.7826 2.22006 19.7826 2.74476 20.1054 3.06752C20.4282 3.3907 20.9526 3.3907 21.2759 3.06752L22.5173 1.82612C22.8401 1.50336 22.8401 0.978661 22.5173 0.655897C22.194 0.332719 21.6696 0.332719 21.3467 0.655897Z" fill="#22BBEE"/>
<path fill-rule="evenodd" clip-rule="evenodd" d="M1.4843 1.82612L2.72565 3.06752C3.04895 3.3907 3.57335 3.3907 3.89616 3.06752C4.21898 2.74476 4.21898 2.22006 3.89616 1.8973L2.65481 0.655897C2.332 0.332719 1.80759 0.332719 1.4843 0.655897C1.16148 0.978661 1.16148 1.50336 1.4843 1.82612Z" fill="#22BBEE"/>
<path fill-rule="evenodd" clip-rule="evenodd" d="M18.4511 16.3091L19.6924 17.5505C20.0157 17.8737 20.5401 17.8737 20.863 17.5505C21.1858 17.2277 21.1858 16.703 20.863 16.3803L19.6216 15.1389C19.2988 14.8157 18.7744 14.8157 18.4511 15.1389C18.1283 15.4616 18.1283 15.9863 18.4511 16.3091Z" fill="#22BBEE"/>
</svg>
