<svg width="24" height="24" viewBox="0 0 24 24" fill="none" xmlns="http://www.w3.org/2000/svg">
<path d="M1.84613 0C1.33635 6.97759e-05 0.923134 0.413309 0.923065 0.923091V18.4616C0.413282 18.4616 3.4888e-05 18.8748 0 19.3846V23.0769C3.4888e-05 23.5867 0.413282 23.9999 0.923065 24H23.0769C23.5867 23.9999 23.9999 23.5867 24 23.0769V19.3846C23.9999 18.8748 23.5867 18.4616 23.0769 18.4616V5.53847C23.0762 4.81419 22.2798 4.37274 21.6653 4.75602L15.6923 8.4898V5.53847C15.6916 4.81419 14.8952 4.37274 14.2807 4.75602L8.30769 8.4898V0.923091C8.30762 0.413309 7.89438 6.97759e-05 7.3846 0H1.84613ZM2.76922 1.84616H6.46153V10.1538C6.46223 10.8781 7.2586 11.3196 7.87319 10.9363L13.8462 7.20253V10.1538C13.8469 10.8781 14.6432 11.3196 15.2578 10.9363L21.2308 7.20253V18.4616H2.76922V1.84616ZM1.84613 20.3077C8.61537 20.3077 15.3846 20.3077 22.1538 20.3077V22.1538H1.84613V20.3077Z" fill="#22BBEE"/>
</svg>
