<svg width="24" height="24" viewBox="0 0 24 24" fill="none" xmlns="http://www.w3.org/2000/svg">
<path d="M10.2855 6.10352e-05C7.45524 6.10352e-05 5.14258 2.31275 5.14258 5.14293C5.14258 7.97311 7.45524 10.2858 10.2855 10.2858C13.1157 10.2858 15.4283 7.97311 15.4283 5.14293C15.4283 2.31275 13.1157 6.10352e-05 10.2855 6.10352e-05ZM10.2855 1.71435C12.1892 1.71435 13.714 3.23922 13.714 5.14293C13.714 7.04664 12.1892 8.57152 10.2855 8.57152C8.38173 8.57152 6.85687 7.04664 6.85687 5.14293C6.85687 3.23922 8.38173 1.71435 10.2855 1.71435Z" fill="#22BBEE"/>
<path d="M7.71431 12.0001C3.45541 12.0001 0 15.4555 0 19.7144V21.4287C2.27061e-05 21.656 0.0903362 21.874 0.251077 22.0348C0.411818 22.1955 0.629823 22.2858 0.857146 22.2858H10.1552C10.2688 22.2874 10.3816 22.2665 10.487 22.2241C10.5924 22.1817 10.6883 22.1189 10.7692 22.0391C10.8501 21.9594 10.9143 21.8643 10.9581 21.7595C11.002 21.6547 11.0246 21.5423 11.0246 21.4287C11.0246 21.3151 11.002 21.2026 10.9581 21.0978C10.9143 20.9931 10.8501 20.898 10.7692 20.8183C10.6883 20.7385 10.5924 20.6756 10.487 20.6333C10.3816 20.5909 10.2688 20.5699 10.1552 20.5715H1.71429V19.7144C1.71429 16.3756 4.37547 13.7144 7.71431 13.7144H11.1563C11.2698 13.716 11.3826 13.695 11.488 13.6526C11.5934 13.6103 11.6893 13.5474 11.7702 13.4677C11.8511 13.3879 11.9154 13.2929 11.9592 13.1881C12.003 13.0833 12.0256 12.9708 12.0256 12.8572C12.0256 12.7436 12.003 12.6312 11.9592 12.5264C11.9154 12.4216 11.8511 12.3266 11.7702 12.2468C11.6893 12.1671 11.5934 12.1042 11.488 12.0618C11.3826 12.0195 11.2698 11.9985 11.1563 12.0001H7.71431Z" fill="#22BBEE"/>
<path d="M17.9887 12.0001C17.5107 12.0078 17.1335 12.3962 17.14 12.8689V13.8014C16.5944 13.9138 16.0861 14.1331 15.6366 14.4325L14.9787 13.7746C14.7767 13.5668 14.5474 13.4885 14.3309 13.5C13.6816 13.5347 13.1432 14.3806 13.7666 14.9866L14.4279 15.6478C14.13 16.0979 13.9109 16.6055 13.8001 17.1511H12.8693C11.7102 17.1347 11.7102 18.8817 12.8693 18.8653H13.8035C13.9156 19.4059 14.1337 19.909 14.4296 20.3552L13.7633 21.0215C12.9321 21.8295 14.1673 23.0647 14.9753 22.2335L15.64 21.5689C16.0888 21.8673 16.5956 22.0862 17.14 22.1984V23.1308C17.1237 24.2899 18.8706 24.2899 18.8542 23.1308V22.2C19.398 22.0889 19.9038 21.8693 20.3525 21.5723L21.0222 22.2419C21.3591 22.5884 21.9167 22.5884 22.2493 22.2453C22.5817 21.9019 22.5734 21.3596 22.2338 21.03L21.5676 20.3637C21.866 19.9156 22.0843 19.4089 22.197 18.8654H23.1311C23.6143 18.8723 24.0074 18.4779 24 17.9999C23.9914 17.522 23.6038 17.1447 23.1311 17.1512H22.2003C22.0889 16.6026 21.8697 16.0915 21.5693 15.6395L22.2304 14.9783C22.5769 14.6415 22.577 14.0839 22.2304 13.7512C22.0597 13.5858 21.8397 13.5047 21.6211 13.5068C21.4026 13.5111 21.1857 13.5977 21.0217 13.7663L20.3587 14.4292C19.9093 14.1311 19.4022 13.9112 18.8571 13.7998V12.869C18.8657 12.3858 18.4695 11.9927 17.9916 12.0002L17.9887 12.0001ZM18.0007 15.4285C19.431 15.4285 20.5721 16.5696 20.5721 17.9999C20.5721 19.4301 19.431 20.5712 18.0007 20.5712C16.5703 20.5712 15.4293 19.4301 15.4293 17.9999C15.4293 16.5696 16.5703 15.4285 18.0007 15.4285Z" fill="#22BBEE"/>
</svg>
