<svg width="24" height="24" viewBox="0 0 24 24" fill="none" xmlns="http://www.w3.org/2000/svg">
<path fill-rule="evenodd" clip-rule="evenodd" d="M12 0C5.37716 0 0 5.37716 0 12C0 18.6228 5.37716 24 12 24C18.6228 24 24 18.6228 24 12C24 5.37716 18.6228 0 12 0ZM12 1.71588C17.6758 1.71588 22.2841 6.32423 22.2841 12C22.2841 17.6758 17.6758 22.2841 12 22.2841C6.32423 22.2841 1.71588 17.6758 1.71588 12C1.71588 6.32423 6.32423 1.71588 12 1.71588Z" fill="#22BBEE"/>
<path fill-rule="evenodd" clip-rule="evenodd" d="M11.142 6.00043V4.71481C11.142 4.2417 11.526 3.85773 11.9991 3.85773C12.4722 3.85773 12.8562 4.2417 12.8562 4.71481V6.00043H13.7141C14.5095 6.00043 15.2723 6.31627 15.8345 6.87894C16.3972 7.44119 16.7131 8.20399 16.7131 8.99936V9.00022C16.7131 9.00022 16.7131 9.8573 15.856 9.8573C14.9989 9.8573 14.9989 9.00022 14.9989 9.00022V8.99936C14.9989 8.65867 14.8635 8.33169 14.6226 8.09085C14.3818 7.85001 14.0548 7.71459 13.7141 7.71459H10.7135C10.2588 7.71459 9.82298 7.89501 9.50157 8.21684C9.17974 8.53825 8.99932 8.97408 8.99932 9.42876C8.99932 9.88344 9.17974 10.3193 9.50157 10.6407C9.82298 10.9625 10.2588 11.1429 10.7135 11.1429H13.2847C14.1941 11.1429 15.0662 11.5042 15.709 12.147C16.3518 12.7898 16.7131 13.6619 16.7131 14.5712C16.7131 15.4806 16.3518 16.3527 15.709 16.9955C15.0662 17.6383 14.1941 17.9996 13.2847 17.9996H12.8562V19.2852C12.8562 19.7583 12.4722 20.1423 11.9991 20.1423C11.526 20.1423 11.142 19.7583 11.142 19.2852V17.9996H10.2841C9.48871 17.9996 8.72591 17.6837 8.16366 17.1211C7.60099 16.5588 7.28516 15.796 7.28516 15.0006V14.9998C7.28516 14.9998 7.28516 14.1427 8.14224 14.1427C8.99932 14.1427 8.99932 14.9998 8.99932 14.9998V15.0006C8.99932 15.3413 9.13474 15.6683 9.37558 15.9092C9.61642 16.15 9.94339 16.2854 10.2841 16.2854H13.2847C13.7394 16.2854 14.1752 16.105 14.4966 15.7832C14.8185 15.4618 14.9989 15.0259 14.9989 14.5712C14.9989 14.1166 14.8185 13.6807 14.4966 13.3593C14.1752 13.0375 13.7394 12.8571 13.2847 12.8571H10.7135C9.80412 12.8571 8.93204 12.4958 8.28923 11.853C7.64642 11.2102 7.28516 10.3381 7.28516 9.42876C7.28516 8.51939 7.64642 7.64731 8.28923 7.0045C8.93204 6.36169 9.80412 6.00043 10.7135 6.00043H11.142Z" fill="#22BBEE"/>
</svg>
