<svg width="24" height="24" viewBox="0 0 24 24" fill="none" xmlns="http://www.w3.org/2000/svg">
<path fill-rule="evenodd" clip-rule="evenodd" d="M12 0C5.37641 0 0 5.37641 0 12C0 18.6236 5.37641 24 12 24C18.6236 24 24 18.6236 24 12C24 5.37641 18.6236 0 12 0ZM12 1.84752C17.6046 1.84752 22.1525 6.39542 22.1525 12C22.1525 17.6046 17.6046 22.1525 12 22.1525C6.39542 22.1525 1.84752 17.6046 1.84752 12C1.84752 6.39542 6.39542 1.84752 12 1.84752Z" fill="#22BBEE"/>
<path fill-rule="evenodd" clip-rule="evenodd" d="M11.0765 11.0771H10.1535C9.64398 11.0771 9.23047 10.6634 9.23047 10.154C9.23047 9.64453 9.64398 9.23102 10.1535 9.23102H11.9995C12.5095 9.23102 12.9225 9.64422 12.9225 10.154V16.6152H13.8456C14.3551 16.6152 14.7686 17.0287 14.7686 17.5382C14.7686 18.0476 14.3551 18.4612 13.8456 18.4612H11.9995C11.4896 18.4612 11.0765 18.0479 11.0765 17.5382V11.0771Z" fill="#22BBEE"/>
<path fill-rule="evenodd" clip-rule="evenodd" d="M12.0008 7.38492C12.5106 7.38492 12.9238 6.97167 12.9238 6.4619C12.9238 5.95213 12.5106 5.53888 12.0008 5.53888C11.491 5.53888 11.0778 5.95213 11.0778 6.4619C11.0778 6.97167 11.491 7.38492 12.0008 7.38492Z" fill="#22BBEE"/>
</svg>
