<svg width="24" height="24" viewBox="0 0 24 24" fill="none" xmlns="http://www.w3.org/2000/svg">
<path d="M11.9865 0.000100201C11.7638 0.00365399 11.5512 0.0937284 11.3938 0.251242L8.21636 3.42871H4.28554C4.05822 3.42873 3.84022 3.51903 3.67948 3.67977C3.51873 3.84052 3.42843 4.05852 3.42841 4.28584V8.21666L0.250944 11.3941C0.0902587 11.5549 0 11.7728 0 12.0001C0 12.2274 0.0902587 12.4454 0.250944 12.6062L3.42841 15.7836V19.7144C3.42843 19.9418 3.51873 20.1598 3.67948 20.3205C3.84022 20.4813 4.05822 20.5716 4.28554 20.5716H8.21636L11.3938 23.7491C11.5546 23.9097 11.7726 24 11.9999 24C12.2272 24 12.4451 23.9097 12.6059 23.7491L15.7833 20.5716H19.7142C19.9415 20.5716 20.1595 20.4812 20.3202 20.3205C20.481 20.1598 20.5713 19.9418 20.5713 19.7144V15.7836L23.7488 12.6062C23.9094 12.4454 23.9997 12.2274 23.9997 12.0001C23.9997 11.7728 23.9094 11.5549 23.7488 11.3941L20.5713 8.21666V4.28584C20.5713 4.05852 20.481 3.84052 20.3202 3.67977C20.1595 3.51903 19.9415 3.42873 19.7142 3.42871H15.7833L12.6059 0.251242C12.5247 0.170033 12.428 0.105945 12.3216 0.0628052C12.2152 0.0196652 12.1013 -0.00165501 11.9865 0.000100201ZM11.9997 2.06929L14.8223 4.89186C14.983 5.05261 15.201 5.14293 15.4283 5.14297H18.8569V8.57156C18.857 8.79887 18.9473 9.01687 19.108 9.1776L21.9306 12.0001L19.108 14.8227C18.9473 14.9834 18.857 15.2014 18.8569 15.4287V18.8573H15.4283C15.201 18.8573 14.983 18.9477 14.8223 19.1084L11.9998 21.931L9.17722 19.1084C9.0165 18.9477 8.7985 18.8573 8.57118 18.8573H5.1426V15.4287C5.14255 15.2014 5.05224 14.9834 4.89148 14.8227L2.06892 12.0001L4.89148 9.1776C5.05224 9.01687 5.14255 8.79887 5.1426 8.57156V5.14297H8.57118C8.7985 5.14292 9.0165 5.05261 9.17722 4.89186L11.9997 2.06929Z" fill="#22BBEE"/>
<path d="M15.6807 8.83547L11.1445 13.3669L8.32233 10.5477C8.13618 10.3618 7.93395 10.2919 7.71638 10.2919C7.49891 10.2919 7.25153 10.3818 7.09794 10.5352C6.94435 10.6886 6.85938 10.9307 6.85938 11.148C6.85938 11.3736 6.93584 11.5908 7.11049 11.7583L10.5386 15.1828C10.8733 15.517 11.4158 15.517 11.7505 15.1828L16.8926 10.0461C17.4532 9.50174 17.0047 8.57629 16.2867 8.57629C16.0373 8.57629 15.7884 8.72795 15.6807 8.83547Z" fill="#22BBEE"/>
</svg>
